<mxfile host="app.diagrams.net" modified="2024-02-26T18:01:29.559Z" agent="Mozilla/5.0 (X11; Linux x86_64; rv:109.0) Gecko/20100101 Firefox/115.0" etag="zmsH9n3SEW_rv1CwT9Oc" version="23.1.4" type="device">
  <diagram name="Page-1" id="MGnApAkEtHDuGTMCWni6">
    <mxGraphModel dx="2390" dy="1323" grid="1" gridSize="10" guides="1" tooltips="1" connect="1" arrows="1" fold="1" page="1" pageScale="1" pageWidth="1169" pageHeight="827" math="0" shadow="0">
      <root>
        <mxCell id="0" />
        <mxCell id="1" parent="0" />
        <mxCell id="CVDt8JpAzeLi0Jwe0tKB-5" style="rounded=0;orthogonalLoop=1;jettySize=auto;html=1;exitX=0.25;exitY=1;exitDx=0;exitDy=0;entryX=0.5;entryY=0;entryDx=0;entryDy=0;" edge="1" parent="1" source="CVDt8JpAzeLi0Jwe0tKB-1" target="CVDt8JpAzeLi0Jwe0tKB-2">
          <mxGeometry relative="1" as="geometry" />
        </mxCell>
        <mxCell id="CVDt8JpAzeLi0Jwe0tKB-6" style="edgeStyle=none;rounded=0;orthogonalLoop=1;jettySize=auto;html=1;exitX=0.5;exitY=1;exitDx=0;exitDy=0;entryX=0.5;entryY=0;entryDx=0;entryDy=0;strokeColor=default;align=center;verticalAlign=middle;fontFamily=Helvetica;fontSize=11;fontColor=default;labelBackgroundColor=default;endArrow=classic;" edge="1" parent="1" source="CVDt8JpAzeLi0Jwe0tKB-1" target="CVDt8JpAzeLi0Jwe0tKB-3">
          <mxGeometry relative="1" as="geometry" />
        </mxCell>
        <mxCell id="CVDt8JpAzeLi0Jwe0tKB-7" style="edgeStyle=none;rounded=0;orthogonalLoop=1;jettySize=auto;html=1;exitX=0.75;exitY=1;exitDx=0;exitDy=0;entryX=0.5;entryY=0;entryDx=0;entryDy=0;strokeColor=default;align=center;verticalAlign=middle;fontFamily=Helvetica;fontSize=11;fontColor=default;labelBackgroundColor=default;endArrow=classic;" edge="1" parent="1" source="CVDt8JpAzeLi0Jwe0tKB-1" target="CVDt8JpAzeLi0Jwe0tKB-4">
          <mxGeometry relative="1" as="geometry" />
        </mxCell>
        <mxCell id="CVDt8JpAzeLi0Jwe0tKB-1" value="World" style="rounded=0;whiteSpace=wrap;html=1;" vertex="1" parent="1">
          <mxGeometry x="550" y="90" width="120" height="60" as="geometry" />
        </mxCell>
        <mxCell id="CVDt8JpAzeLi0Jwe0tKB-2" value="Object1" style="rounded=0;whiteSpace=wrap;html=1;" vertex="1" parent="1">
          <mxGeometry x="340" y="290" width="120" height="60" as="geometry" />
        </mxCell>
        <mxCell id="CVDt8JpAzeLi0Jwe0tKB-10" style="edgeStyle=none;rounded=0;orthogonalLoop=1;jettySize=auto;html=1;exitX=0.25;exitY=1;exitDx=0;exitDy=0;entryX=0.5;entryY=0;entryDx=0;entryDy=0;strokeColor=default;align=center;verticalAlign=middle;fontFamily=Helvetica;fontSize=11;fontColor=default;labelBackgroundColor=default;endArrow=classic;" edge="1" parent="1" source="CVDt8JpAzeLi0Jwe0tKB-3" target="CVDt8JpAzeLi0Jwe0tKB-8">
          <mxGeometry relative="1" as="geometry" />
        </mxCell>
        <mxCell id="CVDt8JpAzeLi0Jwe0tKB-11" style="edgeStyle=none;rounded=0;orthogonalLoop=1;jettySize=auto;html=1;exitX=0.75;exitY=1;exitDx=0;exitDy=0;entryX=0.5;entryY=0;entryDx=0;entryDy=0;strokeColor=default;align=center;verticalAlign=middle;fontFamily=Helvetica;fontSize=11;fontColor=default;labelBackgroundColor=default;endArrow=classic;" edge="1" parent="1" source="CVDt8JpAzeLi0Jwe0tKB-3" target="CVDt8JpAzeLi0Jwe0tKB-9">
          <mxGeometry relative="1" as="geometry" />
        </mxCell>
        <mxCell id="CVDt8JpAzeLi0Jwe0tKB-23" style="edgeStyle=none;rounded=0;orthogonalLoop=1;jettySize=auto;html=1;exitX=0.75;exitY=0;exitDx=0;exitDy=0;entryX=0.5;entryY=1;entryDx=0;entryDy=0;strokeColor=default;align=center;verticalAlign=middle;fontFamily=Helvetica;fontSize=11;fontColor=default;labelBackgroundColor=default;endArrow=classic;dashed=1;" edge="1" parent="1" source="CVDt8JpAzeLi0Jwe0tKB-3" target="CVDt8JpAzeLi0Jwe0tKB-22">
          <mxGeometry relative="1" as="geometry" />
        </mxCell>
        <mxCell id="CVDt8JpAzeLi0Jwe0tKB-3" value="Object2" style="rounded=0;whiteSpace=wrap;html=1;" vertex="1" parent="1">
          <mxGeometry x="550" y="340" width="120" height="60" as="geometry" />
        </mxCell>
        <mxCell id="CVDt8JpAzeLi0Jwe0tKB-4" value="ObjectN" style="rounded=0;whiteSpace=wrap;html=1;" vertex="1" parent="1">
          <mxGeometry x="770" y="290" width="120" height="60" as="geometry" />
        </mxCell>
        <mxCell id="CVDt8JpAzeLi0Jwe0tKB-15" style="edgeStyle=none;rounded=0;orthogonalLoop=1;jettySize=auto;html=1;exitX=0.25;exitY=1;exitDx=0;exitDy=0;entryX=0.5;entryY=0;entryDx=0;entryDy=0;strokeColor=default;align=center;verticalAlign=middle;fontFamily=Helvetica;fontSize=11;fontColor=default;labelBackgroundColor=default;endArrow=classic;" edge="1" parent="1" source="CVDt8JpAzeLi0Jwe0tKB-8" target="CVDt8JpAzeLi0Jwe0tKB-12">
          <mxGeometry relative="1" as="geometry" />
        </mxCell>
        <mxCell id="CVDt8JpAzeLi0Jwe0tKB-16" style="edgeStyle=none;rounded=0;orthogonalLoop=1;jettySize=auto;html=1;exitX=0.5;exitY=1;exitDx=0;exitDy=0;entryX=0.5;entryY=0;entryDx=0;entryDy=0;strokeColor=default;align=center;verticalAlign=middle;fontFamily=Helvetica;fontSize=11;fontColor=default;labelBackgroundColor=default;endArrow=classic;" edge="1" parent="1" source="CVDt8JpAzeLi0Jwe0tKB-8" target="CVDt8JpAzeLi0Jwe0tKB-13">
          <mxGeometry relative="1" as="geometry" />
        </mxCell>
        <mxCell id="CVDt8JpAzeLi0Jwe0tKB-17" style="edgeStyle=none;rounded=0;orthogonalLoop=1;jettySize=auto;html=1;exitX=0.75;exitY=1;exitDx=0;exitDy=0;entryX=0.5;entryY=0;entryDx=0;entryDy=0;strokeColor=default;align=center;verticalAlign=middle;fontFamily=Helvetica;fontSize=11;fontColor=default;labelBackgroundColor=default;endArrow=classic;" edge="1" parent="1" source="CVDt8JpAzeLi0Jwe0tKB-8" target="CVDt8JpAzeLi0Jwe0tKB-14">
          <mxGeometry relative="1" as="geometry" />
        </mxCell>
        <mxCell id="CVDt8JpAzeLi0Jwe0tKB-8" value="Meshes" style="rounded=0;whiteSpace=wrap;html=1;" vertex="1" parent="1">
          <mxGeometry x="420" y="450" width="120" height="60" as="geometry" />
        </mxCell>
        <mxCell id="CVDt8JpAzeLi0Jwe0tKB-19" style="edgeStyle=none;rounded=0;orthogonalLoop=1;jettySize=auto;html=1;exitX=0.25;exitY=1;exitDx=0;exitDy=0;entryX=0.5;entryY=0;entryDx=0;entryDy=0;strokeColor=default;align=center;verticalAlign=middle;fontFamily=Helvetica;fontSize=11;fontColor=default;labelBackgroundColor=default;endArrow=classic;" edge="1" parent="1" source="CVDt8JpAzeLi0Jwe0tKB-79" target="CVDt8JpAzeLi0Jwe0tKB-18">
          <mxGeometry relative="1" as="geometry" />
        </mxCell>
        <mxCell id="CVDt8JpAzeLi0Jwe0tKB-21" style="edgeStyle=none;rounded=0;orthogonalLoop=1;jettySize=auto;html=1;exitX=0.75;exitY=1;exitDx=0;exitDy=0;entryX=0.5;entryY=0;entryDx=0;entryDy=0;strokeColor=default;align=center;verticalAlign=middle;fontFamily=Helvetica;fontSize=11;fontColor=default;labelBackgroundColor=default;endArrow=classic;" edge="1" parent="1" source="CVDt8JpAzeLi0Jwe0tKB-79" target="CVDt8JpAzeLi0Jwe0tKB-20">
          <mxGeometry relative="1" as="geometry" />
        </mxCell>
        <mxCell id="CVDt8JpAzeLi0Jwe0tKB-82" style="edgeStyle=none;rounded=0;orthogonalLoop=1;jettySize=auto;html=1;exitX=0.25;exitY=1;exitDx=0;exitDy=0;entryX=0.5;entryY=0;entryDx=0;entryDy=0;strokeColor=default;align=center;verticalAlign=middle;fontFamily=Helvetica;fontSize=11;fontColor=default;labelBackgroundColor=default;endArrow=classic;" edge="1" parent="1" source="CVDt8JpAzeLi0Jwe0tKB-9" target="CVDt8JpAzeLi0Jwe0tKB-78">
          <mxGeometry relative="1" as="geometry" />
        </mxCell>
        <mxCell id="CVDt8JpAzeLi0Jwe0tKB-83" style="edgeStyle=none;rounded=0;orthogonalLoop=1;jettySize=auto;html=1;exitX=0.5;exitY=1;exitDx=0;exitDy=0;entryX=0.5;entryY=0;entryDx=0;entryDy=0;strokeColor=default;align=center;verticalAlign=middle;fontFamily=Helvetica;fontSize=11;fontColor=default;labelBackgroundColor=default;endArrow=classic;" edge="1" parent="1" source="CVDt8JpAzeLi0Jwe0tKB-9" target="CVDt8JpAzeLi0Jwe0tKB-79">
          <mxGeometry relative="1" as="geometry" />
        </mxCell>
        <mxCell id="CVDt8JpAzeLi0Jwe0tKB-84" style="edgeStyle=none;rounded=0;orthogonalLoop=1;jettySize=auto;html=1;exitX=0.75;exitY=1;exitDx=0;exitDy=0;entryX=0.5;entryY=0;entryDx=0;entryDy=0;strokeColor=default;align=center;verticalAlign=middle;fontFamily=Helvetica;fontSize=11;fontColor=default;labelBackgroundColor=default;endArrow=classic;" edge="1" parent="1" source="CVDt8JpAzeLi0Jwe0tKB-9" target="CVDt8JpAzeLi0Jwe0tKB-80">
          <mxGeometry relative="1" as="geometry" />
        </mxCell>
        <mxCell id="CVDt8JpAzeLi0Jwe0tKB-9" value="ObjectInstances" style="rounded=0;whiteSpace=wrap;html=1;" vertex="1" parent="1">
          <mxGeometry x="880" y="480" width="120" height="60" as="geometry" />
        </mxCell>
        <mxCell id="CVDt8JpAzeLi0Jwe0tKB-12" value="Mesh1" style="rounded=0;whiteSpace=wrap;html=1;" vertex="1" parent="1">
          <mxGeometry x="280" y="610" width="120" height="60" as="geometry" />
        </mxCell>
        <mxCell id="CVDt8JpAzeLi0Jwe0tKB-13" value="Mesh2" style="rounded=0;whiteSpace=wrap;html=1;" vertex="1" parent="1">
          <mxGeometry x="420" y="670" width="120" height="60" as="geometry" />
        </mxCell>
        <mxCell id="CVDt8JpAzeLi0Jwe0tKB-14" value="MeshN" style="rounded=0;whiteSpace=wrap;html=1;" vertex="1" parent="1">
          <mxGeometry x="560" y="610" width="120" height="60" as="geometry" />
        </mxCell>
        <mxCell id="CVDt8JpAzeLi0Jwe0tKB-18" value="ModelMatrix" style="rounded=0;whiteSpace=wrap;html=1;" vertex="1" parent="1">
          <mxGeometry x="810" y="940" width="120" height="60" as="geometry" />
        </mxCell>
        <mxCell id="CVDt8JpAzeLi0Jwe0tKB-28" style="edgeStyle=none;rounded=0;orthogonalLoop=1;jettySize=auto;html=1;exitX=0.25;exitY=1;exitDx=0;exitDy=0;entryX=0.5;entryY=0;entryDx=0;entryDy=0;strokeColor=default;align=center;verticalAlign=middle;fontFamily=Helvetica;fontSize=11;fontColor=default;labelBackgroundColor=default;endArrow=classic;" edge="1" parent="1" source="CVDt8JpAzeLi0Jwe0tKB-20" target="CVDt8JpAzeLi0Jwe0tKB-25">
          <mxGeometry relative="1" as="geometry" />
        </mxCell>
        <mxCell id="CVDt8JpAzeLi0Jwe0tKB-29" style="edgeStyle=none;rounded=0;orthogonalLoop=1;jettySize=auto;html=1;exitX=0.5;exitY=1;exitDx=0;exitDy=0;entryX=0.5;entryY=0;entryDx=0;entryDy=0;strokeColor=default;align=center;verticalAlign=middle;fontFamily=Helvetica;fontSize=11;fontColor=default;labelBackgroundColor=default;endArrow=classic;" edge="1" parent="1" source="CVDt8JpAzeLi0Jwe0tKB-20" target="CVDt8JpAzeLi0Jwe0tKB-26">
          <mxGeometry relative="1" as="geometry" />
        </mxCell>
        <mxCell id="CVDt8JpAzeLi0Jwe0tKB-30" style="edgeStyle=none;rounded=0;orthogonalLoop=1;jettySize=auto;html=1;exitX=0.75;exitY=1;exitDx=0;exitDy=0;entryX=0.5;entryY=0;entryDx=0;entryDy=0;strokeColor=default;align=center;verticalAlign=middle;fontFamily=Helvetica;fontSize=11;fontColor=default;labelBackgroundColor=default;endArrow=classic;" edge="1" parent="1" source="CVDt8JpAzeLi0Jwe0tKB-20" target="CVDt8JpAzeLi0Jwe0tKB-27">
          <mxGeometry relative="1" as="geometry" />
        </mxCell>
        <mxCell id="CVDt8JpAzeLi0Jwe0tKB-20" value="MeshMaterialBindings" style="rounded=0;whiteSpace=wrap;html=1;" vertex="1" parent="1">
          <mxGeometry x="1000" y="1000" width="120" height="60" as="geometry" />
        </mxCell>
        <mxCell id="CVDt8JpAzeLi0Jwe0tKB-22" value="ReifiedObjects" style="rounded=0;whiteSpace=wrap;html=1;" vertex="1" parent="1">
          <mxGeometry x="860" y="20" width="120" height="60" as="geometry" />
        </mxCell>
        <mxCell id="CVDt8JpAzeLi0Jwe0tKB-24" value="Materials" style="rounded=0;whiteSpace=wrap;html=1;" vertex="1" parent="1">
          <mxGeometry x="1400" y="384" width="120" height="60" as="geometry" />
        </mxCell>
        <mxCell id="CVDt8JpAzeLi0Jwe0tKB-25" value="MeshMaterialBinding1" style="rounded=0;whiteSpace=wrap;html=1;" vertex="1" parent="1">
          <mxGeometry x="890" y="1130" width="120" height="60" as="geometry" />
        </mxCell>
        <mxCell id="CVDt8JpAzeLi0Jwe0tKB-31" style="edgeStyle=none;rounded=0;orthogonalLoop=1;jettySize=auto;html=1;exitX=0;exitY=0.5;exitDx=0;exitDy=0;entryX=0.5;entryY=1;entryDx=0;entryDy=0;strokeColor=default;align=center;verticalAlign=middle;fontFamily=Helvetica;fontSize=11;fontColor=default;labelBackgroundColor=default;endArrow=classic;dashed=1;" edge="1" parent="1" source="CVDt8JpAzeLi0Jwe0tKB-26" target="CVDt8JpAzeLi0Jwe0tKB-13">
          <mxGeometry relative="1" as="geometry" />
        </mxCell>
        <mxCell id="CVDt8JpAzeLi0Jwe0tKB-33" value="mesh" style="edgeLabel;html=1;align=center;verticalAlign=middle;resizable=0;points=[];fontFamily=Helvetica;fontSize=11;fontColor=default;labelBackgroundColor=default;" vertex="1" connectable="0" parent="CVDt8JpAzeLi0Jwe0tKB-31">
          <mxGeometry x="0.0299" y="5" relative="1" as="geometry">
            <mxPoint y="-32" as="offset" />
          </mxGeometry>
        </mxCell>
        <mxCell id="CVDt8JpAzeLi0Jwe0tKB-34" style="edgeStyle=none;rounded=0;orthogonalLoop=1;jettySize=auto;html=1;exitX=0.75;exitY=0;exitDx=0;exitDy=0;entryX=0.5;entryY=1;entryDx=0;entryDy=0;strokeColor=default;align=center;verticalAlign=middle;fontFamily=Helvetica;fontSize=11;fontColor=default;labelBackgroundColor=default;endArrow=classic;dashed=1;" edge="1" parent="1" source="CVDt8JpAzeLi0Jwe0tKB-26" target="CVDt8JpAzeLi0Jwe0tKB-24">
          <mxGeometry relative="1" as="geometry" />
        </mxCell>
        <mxCell id="CVDt8JpAzeLi0Jwe0tKB-35" value="materials" style="edgeLabel;html=1;align=center;verticalAlign=middle;resizable=0;points=[];fontFamily=Helvetica;fontSize=11;fontColor=default;labelBackgroundColor=default;" vertex="1" connectable="0" parent="CVDt8JpAzeLi0Jwe0tKB-34">
          <mxGeometry x="0.4171" relative="1" as="geometry">
            <mxPoint x="-19" y="-15" as="offset" />
          </mxGeometry>
        </mxCell>
        <mxCell id="CVDt8JpAzeLi0Jwe0tKB-26" value="&lt;div&gt;MeshMaterialBinding2&lt;/div&gt;" style="rounded=0;whiteSpace=wrap;html=1;" vertex="1" parent="1">
          <mxGeometry x="1010" y="1260" width="120" height="60" as="geometry" />
        </mxCell>
        <mxCell id="CVDt8JpAzeLi0Jwe0tKB-27" value="MeshMaterialBindingN" style="rounded=0;whiteSpace=wrap;html=1;" vertex="1" parent="1">
          <mxGeometry x="1120" y="1120" width="120" height="60" as="geometry" />
        </mxCell>
        <mxCell id="CVDt8JpAzeLi0Jwe0tKB-41" style="edgeStyle=none;rounded=0;orthogonalLoop=1;jettySize=auto;html=1;exitX=0.25;exitY=1;exitDx=0;exitDy=0;entryX=0.5;entryY=0;entryDx=0;entryDy=0;strokeColor=default;align=center;verticalAlign=middle;fontFamily=Helvetica;fontSize=11;fontColor=default;labelBackgroundColor=default;endArrow=classic;" edge="1" parent="1" source="CVDt8JpAzeLi0Jwe0tKB-36" target="CVDt8JpAzeLi0Jwe0tKB-37">
          <mxGeometry relative="1" as="geometry" />
        </mxCell>
        <mxCell id="CVDt8JpAzeLi0Jwe0tKB-42" style="edgeStyle=none;rounded=0;orthogonalLoop=1;jettySize=auto;html=1;exitX=0.5;exitY=1;exitDx=0;exitDy=0;strokeColor=default;align=center;verticalAlign=middle;fontFamily=Helvetica;fontSize=11;fontColor=default;labelBackgroundColor=default;endArrow=classic;" edge="1" parent="1" source="CVDt8JpAzeLi0Jwe0tKB-36" target="CVDt8JpAzeLi0Jwe0tKB-39">
          <mxGeometry relative="1" as="geometry" />
        </mxCell>
        <mxCell id="CVDt8JpAzeLi0Jwe0tKB-43" style="edgeStyle=none;rounded=0;orthogonalLoop=1;jettySize=auto;html=1;exitX=0.75;exitY=1;exitDx=0;exitDy=0;entryX=0.5;entryY=0;entryDx=0;entryDy=0;strokeColor=default;align=center;verticalAlign=middle;fontFamily=Helvetica;fontSize=11;fontColor=default;labelBackgroundColor=default;endArrow=classic;" edge="1" parent="1" source="CVDt8JpAzeLi0Jwe0tKB-36" target="CVDt8JpAzeLi0Jwe0tKB-40">
          <mxGeometry relative="1" as="geometry" />
        </mxCell>
        <mxCell id="CVDt8JpAzeLi0Jwe0tKB-36" value="RenderWorld" style="rounded=0;whiteSpace=wrap;html=1;" vertex="1" parent="1">
          <mxGeometry x="2380" y="60" width="120" height="60" as="geometry" />
        </mxCell>
        <mxCell id="CVDt8JpAzeLi0Jwe0tKB-37" value="RenderPass1" style="rounded=0;whiteSpace=wrap;html=1;" vertex="1" parent="1">
          <mxGeometry x="2230" y="190" width="120" height="60" as="geometry" />
        </mxCell>
        <mxCell id="CVDt8JpAzeLi0Jwe0tKB-47" style="edgeStyle=none;rounded=0;orthogonalLoop=1;jettySize=auto;html=1;exitX=0.25;exitY=1;exitDx=0;exitDy=0;entryX=0.5;entryY=0;entryDx=0;entryDy=0;strokeColor=default;align=center;verticalAlign=middle;fontFamily=Helvetica;fontSize=11;fontColor=default;labelBackgroundColor=default;endArrow=classic;" edge="1" parent="1" source="CVDt8JpAzeLi0Jwe0tKB-39" target="CVDt8JpAzeLi0Jwe0tKB-44">
          <mxGeometry relative="1" as="geometry" />
        </mxCell>
        <mxCell id="CVDt8JpAzeLi0Jwe0tKB-48" style="edgeStyle=none;rounded=0;orthogonalLoop=1;jettySize=auto;html=1;exitX=0.5;exitY=1;exitDx=0;exitDy=0;entryX=0.5;entryY=0;entryDx=0;entryDy=0;strokeColor=default;align=center;verticalAlign=middle;fontFamily=Helvetica;fontSize=11;fontColor=default;labelBackgroundColor=default;endArrow=classic;" edge="1" parent="1" source="CVDt8JpAzeLi0Jwe0tKB-39" target="CVDt8JpAzeLi0Jwe0tKB-45">
          <mxGeometry relative="1" as="geometry" />
        </mxCell>
        <mxCell id="CVDt8JpAzeLi0Jwe0tKB-49" style="edgeStyle=none;rounded=0;orthogonalLoop=1;jettySize=auto;html=1;exitX=0.75;exitY=1;exitDx=0;exitDy=0;entryX=0.5;entryY=0;entryDx=0;entryDy=0;strokeColor=default;align=center;verticalAlign=middle;fontFamily=Helvetica;fontSize=11;fontColor=default;labelBackgroundColor=default;endArrow=classic;" edge="1" parent="1" source="CVDt8JpAzeLi0Jwe0tKB-39" target="CVDt8JpAzeLi0Jwe0tKB-46">
          <mxGeometry relative="1" as="geometry" />
        </mxCell>
        <mxCell id="CVDt8JpAzeLi0Jwe0tKB-39" value="&lt;div&gt;RenderPass2&lt;/div&gt;" style="rounded=0;whiteSpace=wrap;html=1;" vertex="1" parent="1">
          <mxGeometry x="2380" y="290" width="120" height="60" as="geometry" />
        </mxCell>
        <mxCell id="CVDt8JpAzeLi0Jwe0tKB-40" value="RenderPassN" style="rounded=0;whiteSpace=wrap;html=1;" vertex="1" parent="1">
          <mxGeometry x="2560" y="190" width="120" height="60" as="geometry" />
        </mxCell>
        <mxCell id="CVDt8JpAzeLi0Jwe0tKB-44" value="Material1" style="rounded=0;whiteSpace=wrap;html=1;" vertex="1" parent="1">
          <mxGeometry x="2218" y="410" width="120" height="60" as="geometry" />
        </mxCell>
        <mxCell id="CVDt8JpAzeLi0Jwe0tKB-54" style="edgeStyle=none;rounded=0;orthogonalLoop=1;jettySize=auto;html=1;exitX=0;exitY=0.5;exitDx=0;exitDy=0;entryX=1;entryY=0.5;entryDx=0;entryDy=0;strokeColor=default;align=center;verticalAlign=middle;fontFamily=Helvetica;fontSize=11;fontColor=default;labelBackgroundColor=default;endArrow=classic;dashed=1;" edge="1" parent="1" source="CVDt8JpAzeLi0Jwe0tKB-45" target="CVDt8JpAzeLi0Jwe0tKB-53">
          <mxGeometry relative="1" as="geometry" />
        </mxCell>
        <mxCell id="CVDt8JpAzeLi0Jwe0tKB-55" value="shader" style="edgeLabel;html=1;align=center;verticalAlign=middle;resizable=0;points=[];fontFamily=Helvetica;fontSize=11;fontColor=default;labelBackgroundColor=default;" vertex="1" connectable="0" parent="CVDt8JpAzeLi0Jwe0tKB-54">
          <mxGeometry x="-0.1989" y="4" relative="1" as="geometry">
            <mxPoint x="-9" y="-23" as="offset" />
          </mxGeometry>
        </mxCell>
        <mxCell id="CVDt8JpAzeLi0Jwe0tKB-57" style="edgeStyle=none;rounded=0;orthogonalLoop=1;jettySize=auto;html=1;exitX=0.75;exitY=1;exitDx=0;exitDy=0;entryX=0.5;entryY=0;entryDx=0;entryDy=0;strokeColor=default;align=center;verticalAlign=middle;fontFamily=Helvetica;fontSize=11;fontColor=default;labelBackgroundColor=default;endArrow=classic;" edge="1" parent="1" source="CVDt8JpAzeLi0Jwe0tKB-45" target="CVDt8JpAzeLi0Jwe0tKB-56">
          <mxGeometry relative="1" as="geometry" />
        </mxCell>
        <mxCell id="CVDt8JpAzeLi0Jwe0tKB-59" style="edgeStyle=none;rounded=0;orthogonalLoop=1;jettySize=auto;html=1;exitX=0.25;exitY=1;exitDx=0;exitDy=0;entryX=0.5;entryY=0;entryDx=0;entryDy=0;strokeColor=default;align=center;verticalAlign=middle;fontFamily=Helvetica;fontSize=11;fontColor=default;labelBackgroundColor=default;endArrow=classic;" edge="1" parent="1" source="CVDt8JpAzeLi0Jwe0tKB-45" target="CVDt8JpAzeLi0Jwe0tKB-58">
          <mxGeometry relative="1" as="geometry" />
        </mxCell>
        <mxCell id="CVDt8JpAzeLi0Jwe0tKB-45" value="Material2" style="rounded=0;whiteSpace=wrap;html=1;" vertex="1" parent="1">
          <mxGeometry x="2380" y="510" width="120" height="60" as="geometry" />
        </mxCell>
        <mxCell id="CVDt8JpAzeLi0Jwe0tKB-46" value="MaterialN" style="rounded=0;whiteSpace=wrap;html=1;" vertex="1" parent="1">
          <mxGeometry x="2540" y="420" width="120" height="60" as="geometry" />
        </mxCell>
        <mxCell id="CVDt8JpAzeLi0Jwe0tKB-53" value="Shaders" style="rounded=0;whiteSpace=wrap;html=1;" vertex="1" parent="1">
          <mxGeometry x="1710" y="384" width="120" height="60" as="geometry" />
        </mxCell>
        <mxCell id="CVDt8JpAzeLi0Jwe0tKB-56" value="MaterialData" style="rounded=0;whiteSpace=wrap;html=1;" vertex="1" parent="1">
          <mxGeometry x="2480" y="620" width="120" height="60" as="geometry" />
        </mxCell>
        <mxCell id="CVDt8JpAzeLi0Jwe0tKB-63" style="edgeStyle=none;rounded=0;orthogonalLoop=1;jettySize=auto;html=1;exitX=0.25;exitY=1;exitDx=0;exitDy=0;entryX=0.5;entryY=0;entryDx=0;entryDy=0;strokeColor=default;align=center;verticalAlign=middle;fontFamily=Helvetica;fontSize=11;fontColor=default;labelBackgroundColor=default;endArrow=classic;" edge="1" parent="1" source="CVDt8JpAzeLi0Jwe0tKB-58" target="CVDt8JpAzeLi0Jwe0tKB-60">
          <mxGeometry relative="1" as="geometry" />
        </mxCell>
        <mxCell id="CVDt8JpAzeLi0Jwe0tKB-64" style="edgeStyle=none;rounded=0;orthogonalLoop=1;jettySize=auto;html=1;exitX=0.5;exitY=1;exitDx=0;exitDy=0;entryX=0.5;entryY=0;entryDx=0;entryDy=0;strokeColor=default;align=center;verticalAlign=middle;fontFamily=Helvetica;fontSize=11;fontColor=default;labelBackgroundColor=default;endArrow=classic;" edge="1" parent="1" source="CVDt8JpAzeLi0Jwe0tKB-58" target="CVDt8JpAzeLi0Jwe0tKB-61">
          <mxGeometry relative="1" as="geometry" />
        </mxCell>
        <mxCell id="CVDt8JpAzeLi0Jwe0tKB-65" style="edgeStyle=none;rounded=0;orthogonalLoop=1;jettySize=auto;html=1;exitX=0.75;exitY=1;exitDx=0;exitDy=0;entryX=0.5;entryY=0;entryDx=0;entryDy=0;strokeColor=default;align=center;verticalAlign=middle;fontFamily=Helvetica;fontSize=11;fontColor=default;labelBackgroundColor=default;endArrow=classic;" edge="1" parent="1" source="CVDt8JpAzeLi0Jwe0tKB-58" target="CVDt8JpAzeLi0Jwe0tKB-62">
          <mxGeometry relative="1" as="geometry" />
        </mxCell>
        <mxCell id="CVDt8JpAzeLi0Jwe0tKB-58" value="RenderGroups" style="rounded=0;whiteSpace=wrap;html=1;" vertex="1" parent="1">
          <mxGeometry x="2290" y="620" width="120" height="60" as="geometry" />
        </mxCell>
        <mxCell id="CVDt8JpAzeLi0Jwe0tKB-60" value="RenderGroup1" style="rounded=0;whiteSpace=wrap;html=1;" vertex="1" parent="1">
          <mxGeometry x="2150" y="760" width="120" height="60" as="geometry" />
        </mxCell>
        <mxCell id="CVDt8JpAzeLi0Jwe0tKB-67" style="edgeStyle=none;rounded=0;orthogonalLoop=1;jettySize=auto;html=1;exitX=0;exitY=0.5;exitDx=0;exitDy=0;entryX=1;entryY=0.5;entryDx=0;entryDy=0;strokeColor=default;align=center;verticalAlign=middle;fontFamily=Helvetica;fontSize=11;fontColor=default;labelBackgroundColor=default;endArrow=classic;dashed=1;" edge="1" parent="1" source="CVDt8JpAzeLi0Jwe0tKB-61" target="CVDt8JpAzeLi0Jwe0tKB-14">
          <mxGeometry relative="1" as="geometry" />
        </mxCell>
        <mxCell id="CVDt8JpAzeLi0Jwe0tKB-68" value="mesh" style="edgeLabel;html=1;align=center;verticalAlign=middle;resizable=0;points=[];fontFamily=Helvetica;fontSize=11;fontColor=default;labelBackgroundColor=default;" vertex="1" connectable="0" parent="CVDt8JpAzeLi0Jwe0tKB-67">
          <mxGeometry x="-0.6157" relative="1" as="geometry">
            <mxPoint y="-14" as="offset" />
          </mxGeometry>
        </mxCell>
        <mxCell id="CVDt8JpAzeLi0Jwe0tKB-71" style="edgeStyle=none;rounded=0;orthogonalLoop=1;jettySize=auto;html=1;exitX=0.25;exitY=1;exitDx=0;exitDy=0;entryX=0.5;entryY=0;entryDx=0;entryDy=0;strokeColor=default;align=center;verticalAlign=middle;fontFamily=Helvetica;fontSize=11;fontColor=default;labelBackgroundColor=default;endArrow=classic;" edge="1" parent="1" source="CVDt8JpAzeLi0Jwe0tKB-61" target="CVDt8JpAzeLi0Jwe0tKB-70">
          <mxGeometry relative="1" as="geometry" />
        </mxCell>
        <mxCell id="CVDt8JpAzeLi0Jwe0tKB-61" value="RenderGroup2" style="rounded=0;whiteSpace=wrap;html=1;" vertex="1" parent="1">
          <mxGeometry x="2290" y="850" width="120" height="60" as="geometry" />
        </mxCell>
        <mxCell id="CVDt8JpAzeLi0Jwe0tKB-62" value="RenderGroup3" style="rounded=0;whiteSpace=wrap;html=1;" vertex="1" parent="1">
          <mxGeometry x="2430" y="760" width="120" height="60" as="geometry" />
        </mxCell>
        <mxCell id="CVDt8JpAzeLi0Jwe0tKB-72" style="edgeStyle=none;rounded=0;orthogonalLoop=1;jettySize=auto;html=1;exitX=0;exitY=0.5;exitDx=0;exitDy=0;entryX=1;entryY=0.5;entryDx=0;entryDy=0;strokeColor=default;align=center;verticalAlign=middle;fontFamily=Helvetica;fontSize=11;fontColor=default;labelBackgroundColor=default;endArrow=classic;dashed=1;dashPattern=8 8;" edge="1" parent="1" source="CVDt8JpAzeLi0Jwe0tKB-70" target="CVDt8JpAzeLi0Jwe0tKB-18">
          <mxGeometry relative="1" as="geometry" />
        </mxCell>
        <mxCell id="CVDt8JpAzeLi0Jwe0tKB-73" value="data" style="edgeLabel;html=1;align=center;verticalAlign=middle;resizable=0;points=[];fontFamily=Helvetica;fontSize=11;fontColor=default;labelBackgroundColor=default;" vertex="1" connectable="0" parent="CVDt8JpAzeLi0Jwe0tKB-72">
          <mxGeometry x="-0.4946" y="6" relative="1" as="geometry">
            <mxPoint x="36" y="-17" as="offset" />
          </mxGeometry>
        </mxCell>
        <mxCell id="CVDt8JpAzeLi0Jwe0tKB-70" value="MeshData" style="rounded=0;whiteSpace=wrap;html=1;" vertex="1" parent="1">
          <mxGeometry x="2218" y="990" width="120" height="60" as="geometry" />
        </mxCell>
        <mxCell id="CVDt8JpAzeLi0Jwe0tKB-75" value="&lt;div align=&quot;left&quot;&gt;&lt;font style=&quot;font-size: 20px;&quot;&gt;&lt;b&gt;for renderpass in renderpasses&lt;/b&gt;&lt;/font&gt;&lt;/div&gt;&lt;div align=&quot;left&quot;&gt;&lt;font style=&quot;font-size: 20px;&quot;&gt;&lt;b&gt;do&lt;/b&gt;&lt;/font&gt;&lt;/div&gt;&lt;div align=&quot;left&quot;&gt;&lt;font style=&quot;font-size: 20px;&quot;&gt;&lt;b&gt;&lt;span style=&quot;white-space: pre;&quot;&gt;&#x9;&lt;/span&gt;renderpass.Bind();&lt;/b&gt;&lt;/font&gt;&lt;/div&gt;&lt;div align=&quot;left&quot;&gt;&lt;font style=&quot;font-size: 20px;&quot;&gt;&lt;b&gt;&lt;span style=&quot;white-space: pre;&quot;&gt;&#x9;&lt;/span&gt;for material in renderpass.materials&lt;/b&gt;&lt;/font&gt;&lt;/div&gt;&lt;div align=&quot;left&quot;&gt;&lt;font style=&quot;font-size: 20px;&quot;&gt;&lt;b&gt;&lt;span style=&quot;white-space: pre;&quot;&gt;&#x9;&lt;/span&gt;do&lt;/b&gt;&lt;/font&gt;&lt;/div&gt;&lt;div align=&quot;left&quot;&gt;&lt;font style=&quot;font-size: 20px;&quot;&gt;&lt;b&gt;&lt;span style=&quot;white-space: pre;&quot;&gt;&#x9;&lt;/span&gt;&lt;span style=&quot;white-space: pre;&quot;&gt;&#x9;&lt;/span&gt;material.Bind();&lt;/b&gt;&lt;/font&gt;&lt;/div&gt;&lt;div align=&quot;left&quot;&gt;&lt;font style=&quot;font-size: 20px;&quot;&gt;&lt;b&gt;&lt;span style=&quot;white-space: pre;&quot;&gt;&#x9;&lt;/span&gt;&lt;span style=&quot;white-space: pre;&quot;&gt;&#x9;&lt;/span&gt;for render_group in material.render_groups&lt;/b&gt;&lt;/font&gt;&lt;/div&gt;&lt;div align=&quot;left&quot;&gt;&lt;font style=&quot;font-size: 20px;&quot;&gt;&lt;b&gt;&lt;span style=&quot;white-space: pre;&quot;&gt;&#x9;&lt;/span&gt;&lt;span style=&quot;white-space: pre;&quot;&gt;&#x9;&lt;/span&gt;do&lt;/b&gt;&lt;/font&gt;&lt;/div&gt;&lt;div align=&quot;left&quot;&gt;&lt;font style=&quot;font-size: 20px;&quot;&gt;&lt;b&gt;&lt;span style=&quot;white-space: pre;&quot;&gt;&#x9;&lt;/span&gt;&lt;span style=&quot;white-space: pre;&quot;&gt;&#x9;&lt;/span&gt;&lt;span style=&quot;white-space: pre;&quot;&gt;&#x9;&lt;/span&gt;render_group.Bind() -&amp;gt; mesh.Bind() and MeshData.Bind()&lt;br&gt;&lt;/b&gt;&lt;/font&gt;&lt;/div&gt;&lt;div align=&quot;left&quot;&gt;&lt;font style=&quot;font-size: 20px;&quot;&gt;&lt;b&gt;&lt;span style=&quot;white-space: pre;&quot;&gt;&#x9;&lt;/span&gt;&lt;span style=&quot;white-space: pre;&quot;&gt;&#x9;&lt;/span&gt;end&lt;br&gt;&lt;/b&gt;&lt;/font&gt;&lt;/div&gt;&lt;div align=&quot;left&quot;&gt;&lt;font style=&quot;font-size: 20px;&quot;&gt;&lt;b&gt;&lt;span style=&quot;white-space: pre;&quot;&gt;&#x9;&lt;/span&gt;end&lt;br&gt;&lt;/b&gt;&lt;/font&gt;&lt;/div&gt;&lt;div align=&quot;left&quot;&gt;&lt;font style=&quot;font-size: 20px;&quot;&gt;&lt;b&gt;end&lt;br&gt;&lt;/b&gt;&lt;/font&gt;&lt;/div&gt;" style="text;html=1;align=left;verticalAlign=middle;resizable=0;points=[];autosize=1;strokeColor=none;fillColor=none;fontFamily=Helvetica;fontSize=11;fontColor=default;labelBackgroundColor=default;" vertex="1" parent="1">
          <mxGeometry x="1990" y="1110" width="640" height="310" as="geometry" />
        </mxCell>
        <mxCell id="CVDt8JpAzeLi0Jwe0tKB-76" value="&lt;div align=&quot;left&quot;&gt;&lt;font style=&quot;font-size: 20px;&quot;&gt;&lt;b&gt;new Object: noop&lt;/b&gt;&lt;/font&gt;&lt;/div&gt;" style="text;html=1;align=left;verticalAlign=middle;resizable=0;points=[];autosize=1;strokeColor=none;fillColor=none;fontFamily=Helvetica;fontSize=11;fontColor=default;labelBackgroundColor=default;" vertex="1" parent="1">
          <mxGeometry x="910" y="230" width="190" height="40" as="geometry" />
        </mxCell>
        <mxCell id="CVDt8JpAzeLi0Jwe0tKB-77" value="&lt;div align=&quot;left&quot;&gt;&lt;font style=&quot;font-size: 20px;&quot;&gt;&lt;b&gt;new ObjectInstance: noop&lt;br&gt;&lt;/b&gt;&lt;/font&gt;&lt;/div&gt;" style="text;html=1;align=left;verticalAlign=middle;resizable=0;points=[];autosize=1;strokeColor=none;fillColor=none;fontFamily=Helvetica;fontSize=11;fontColor=default;labelBackgroundColor=default;" vertex="1" parent="1">
          <mxGeometry x="1040" y="800" width="270" height="40" as="geometry" />
        </mxCell>
        <mxCell id="CVDt8JpAzeLi0Jwe0tKB-78" value="ObjectInstance1" style="rounded=0;whiteSpace=wrap;html=1;" vertex="1" parent="1">
          <mxGeometry x="770" y="700" width="120" height="60" as="geometry" />
        </mxCell>
        <mxCell id="CVDt8JpAzeLi0Jwe0tKB-79" value="ObjectInstance2" style="rounded=0;whiteSpace=wrap;html=1;" vertex="1" parent="1">
          <mxGeometry x="890" y="810" width="120" height="60" as="geometry" />
        </mxCell>
        <mxCell id="CVDt8JpAzeLi0Jwe0tKB-80" value="ObjectInstanceN" style="rounded=0;whiteSpace=wrap;html=1;" vertex="1" parent="1">
          <mxGeometry x="1049" y="730" width="120" height="60" as="geometry" />
        </mxCell>
        <mxCell id="CVDt8JpAzeLi0Jwe0tKB-81" style="edgeStyle=none;rounded=0;orthogonalLoop=1;jettySize=auto;html=1;exitX=0.5;exitY=1;exitDx=0;exitDy=0;strokeColor=default;align=center;verticalAlign=middle;fontFamily=Helvetica;fontSize=11;fontColor=default;labelBackgroundColor=default;endArrow=classic;" edge="1" parent="1" source="CVDt8JpAzeLi0Jwe0tKB-26" target="CVDt8JpAzeLi0Jwe0tKB-26">
          <mxGeometry relative="1" as="geometry" />
        </mxCell>
        <mxCell id="CVDt8JpAzeLi0Jwe0tKB-85" value="&lt;div align=&quot;left&quot;&gt;&lt;font style=&quot;font-size: 20px;&quot;&gt;&lt;b&gt;new Material:&lt;/b&gt;&lt;/font&gt;&lt;/div&gt;&lt;div align=&quot;left&quot;&gt;&lt;font style=&quot;font-size: 20px;&quot;&gt;&lt;b&gt;if !material.Exists()&lt;/b&gt;&lt;/font&gt;&lt;/div&gt;&lt;div align=&quot;left&quot;&gt;&lt;font style=&quot;font-size: 20px;&quot;&gt;&lt;b&gt;do&lt;/b&gt;&lt;/font&gt;&lt;/div&gt;&lt;div align=&quot;left&quot;&gt;&lt;font style=&quot;font-size: 20px;&quot;&gt;&lt;b&gt;&lt;span style=&quot;white-space: pre;&quot;&gt;&#x9;&lt;/span&gt;material.GetCompatibleRenderPass().Attach(material)&lt;br&gt;&lt;/b&gt;&lt;/font&gt;&lt;/div&gt;&lt;div align=&quot;left&quot;&gt;&lt;font style=&quot;font-size: 20px;&quot;&gt;&lt;b&gt;end &lt;br&gt;&lt;/b&gt;&lt;/font&gt;&lt;/div&gt;&lt;div align=&quot;left&quot;&gt;&lt;font style=&quot;font-size: 20px;&quot;&gt;&lt;b&gt;&lt;br&gt;&lt;/b&gt;&lt;/font&gt;&lt;/div&gt;&lt;div align=&quot;left&quot;&gt;&lt;font style=&quot;font-size: 20px;&quot;&gt;&lt;b&gt;if !material.HasMesh(mesh)&lt;/b&gt;&lt;/font&gt;&lt;/div&gt;&lt;div align=&quot;left&quot;&gt;&lt;font style=&quot;font-size: 20px;&quot;&gt;&lt;b&gt;do&lt;/b&gt;&lt;/font&gt;&lt;/div&gt;&lt;div align=&quot;left&quot;&gt;&lt;font style=&quot;font-size: 20px;&quot;&gt;&lt;b&gt;&lt;span style=&quot;white-space: pre;&quot;&gt;&#x9;&lt;/span&gt;material.Attach(mesh)&lt;br&gt;&lt;/b&gt;&lt;/font&gt;&lt;/div&gt;&lt;div align=&quot;left&quot;&gt;&lt;font style=&quot;font-size: 20px;&quot;&gt;&lt;b&gt;end&lt;br&gt;&lt;/b&gt;&lt;/font&gt;&lt;/div&gt;&lt;div align=&quot;left&quot;&gt;&lt;font style=&quot;font-size: 20px;&quot;&gt;&lt;b&gt;&lt;br&gt;&lt;/b&gt;&lt;/font&gt;&lt;/div&gt;&lt;div align=&quot;left&quot;&gt;&lt;font style=&quot;font-size: 20px;&quot;&gt;&lt;b&gt;mesh.AddNewInstance(object.GetObjectData())&lt;br&gt;&lt;/b&gt;&lt;/font&gt;&lt;/div&gt;" style="text;html=1;align=left;verticalAlign=middle;resizable=0;points=[];autosize=1;strokeColor=none;fillColor=none;fontFamily=Helvetica;fontSize=11;fontColor=default;labelBackgroundColor=default;" vertex="1" parent="1">
          <mxGeometry x="670" y="1344" width="560" height="310" as="geometry" />
        </mxCell>
        <mxCell id="CVDt8JpAzeLi0Jwe0tKB-86" value="&lt;div align=&quot;left&quot;&gt;&lt;font style=&quot;font-size: 20px;&quot;&gt;&lt;b&gt;remove Material:&lt;/b&gt;&lt;/font&gt;&lt;/div&gt;&lt;div align=&quot;left&quot;&gt;&lt;font style=&quot;font-size: 20px;&quot;&gt;&lt;b&gt;if material.Exists() and material.HasMesh(mesh)&lt;br&gt;&lt;/b&gt;&lt;/font&gt;&lt;/div&gt;&lt;div align=&quot;left&quot;&gt;&lt;font style=&quot;font-size: 20px;&quot;&gt;&lt;b&gt;do&lt;/b&gt;&lt;/font&gt;&lt;/div&gt;&lt;div align=&quot;left&quot;&gt;&lt;font style=&quot;font-size: 20px;&quot;&gt;&lt;b&gt;&lt;span style=&quot;white-space: pre;&quot;&gt;&#x9;&lt;/span&gt;mesh.RemoveInstance(object_instance)&lt;br&gt;&lt;/b&gt;&lt;/font&gt;&lt;/div&gt;&lt;div align=&quot;left&quot;&gt;&lt;font style=&quot;font-size: 20px;&quot;&gt;&lt;b&gt;end &lt;br&gt;&lt;/b&gt;&lt;/font&gt;&lt;/div&gt;" style="text;html=1;align=left;verticalAlign=middle;resizable=0;points=[];autosize=1;strokeColor=none;fillColor=none;fontFamily=Helvetica;fontSize=11;fontColor=default;labelBackgroundColor=default;" vertex="1" parent="1">
          <mxGeometry x="1240" y="1360" width="480" height="140" as="geometry" />
        </mxCell>
        <mxCell id="CVDt8JpAzeLi0Jwe0tKB-87" value="&lt;div align=&quot;left&quot;&gt;&lt;font style=&quot;font-size: 20px;&quot;&gt;&lt;b&gt;remove ObjectInstance:&lt;/b&gt;&lt;/font&gt;&lt;/div&gt;&lt;div align=&quot;left&quot;&gt;&lt;font style=&quot;font-size: 20px;&quot;&gt;&lt;b&gt;for binding in mesh_material_bindings&lt;/b&gt;&lt;/font&gt;&lt;/div&gt;&lt;div align=&quot;left&quot;&gt;&lt;font style=&quot;font-size: 20px;&quot;&gt;&lt;b&gt;do&lt;/b&gt;&lt;/font&gt;&lt;/div&gt;&lt;div align=&quot;left&quot;&gt;&lt;font style=&quot;font-size: 20px;&quot;&gt;&lt;b&gt;&lt;span style=&quot;white-space: pre;&quot;&gt;&#x9;&lt;/span&gt;material.RemoveInstance(object_instance)&lt;br&gt;&lt;/b&gt;&lt;/font&gt;&lt;/div&gt;&lt;div align=&quot;left&quot;&gt;&lt;font style=&quot;font-size: 20px;&quot;&gt;&lt;b&gt;end&lt;br&gt;&lt;/b&gt;&lt;/font&gt;&lt;/div&gt;" style="text;html=1;align=left;verticalAlign=middle;resizable=0;points=[];autosize=1;strokeColor=none;fillColor=none;fontFamily=Helvetica;fontSize=11;fontColor=default;labelBackgroundColor=default;" vertex="1" parent="1">
          <mxGeometry x="1320" y="810" width="450" height="140" as="geometry" />
        </mxCell>
        <mxCell id="CVDt8JpAzeLi0Jwe0tKB-88" value="&lt;div align=&quot;left&quot;&gt;&lt;font style=&quot;font-size: 20px;&quot;&gt;&lt;b&gt;remove Object:&lt;/b&gt;&lt;/font&gt;&lt;/div&gt;&lt;div align=&quot;left&quot;&gt;&lt;font style=&quot;font-size: 20px;&quot;&gt;&lt;b&gt;for object_instance in object_instances&lt;/b&gt;&lt;/font&gt;&lt;/div&gt;&lt;div align=&quot;left&quot;&gt;&lt;font style=&quot;font-size: 20px;&quot;&gt;&lt;b&gt;do&lt;/b&gt;&lt;/font&gt;&lt;/div&gt;&lt;div align=&quot;left&quot;&gt;&lt;font style=&quot;font-size: 20px;&quot;&gt;&lt;b&gt;&lt;span style=&quot;white-space: pre;&quot;&gt;&#x9;&lt;/span&gt;object_instance.remove()&lt;br&gt;&lt;/b&gt;&lt;/font&gt;&lt;/div&gt;&lt;div align=&quot;left&quot;&gt;&lt;font style=&quot;font-size: 20px;&quot;&gt;&lt;b&gt;end&lt;br&gt;&lt;/b&gt;&lt;/font&gt;&lt;/div&gt;" style="text;html=1;align=left;verticalAlign=middle;resizable=0;points=[];autosize=1;strokeColor=none;fillColor=none;fontFamily=Helvetica;fontSize=11;fontColor=default;labelBackgroundColor=default;" vertex="1" parent="1">
          <mxGeometry x="1100" y="220" width="400" height="140" as="geometry" />
        </mxCell>
      </root>
    </mxGraphModel>
  </diagram>
</mxfile>
